<?xml version="1.0" encoding="UTF-8"?>
<svg version="1.1" xmlns="http://www.w3.org/2000/svg" width="84" height="103">
<path d="M0 0 C27.72 0 55.44 0 84 0 C84 33.99 84 67.98 84 103 C56.28 103 28.56 103 0 103 C0 69.01 0 35.02 0 0 Z " fill="#F3D9FE" transform="translate(0,0)"/>
<path d="M0 0 C27.72 0 55.44 0 84 0 C84 33.99 84 67.98 84 103 C56.28 103 28.56 103 0 103 C0 69.01 0 35.02 0 0 Z M5 6 C5 36.36 5 66.72 5 98 C29.42 98 53.84 98 79 98 C79 67.64 79 37.28 79 6 C54.58 6 30.16 6 5 6 Z " fill="#FEFDFE" transform="translate(0,0)"/>
<path d="M0 0 C24.42 0 48.84 0 74 0 C74 30.36 74 60.72 74 92 C49.58 92 25.16 92 0 92 C0 61.64 0 31.28 0 0 Z M3 3 C3 31.38 3 59.76 3 89 C25.44 89 47.88 89 71 89 C71 60.62 71 32.24 71 3 C48.56 3 26.12 3 3 3 Z " fill="#B40EFF" transform="translate(5,6)"/>
<path d="M0 0 C18.81 0 37.62 0 57 0 C57 1.98 57 3.96 57 6 C38.19 6 19.38 6 0 6 C0 4.02 0 2.04 0 0 Z " fill="#FAF0FE" transform="translate(13,47)"/>
<path d="M0 0 C5.61 0 11.22 0 17 0 C17 5.61 17 11.22 17 17 C11.39 17 5.78 17 0 17 C0 11.39 0 5.78 0 0 Z " fill="#D332FE" transform="translate(50,14)"/>
<path d="M0 0 C20.13 0 40.26 0 61 0 C61 3.3 61 6.6 61 10 C40.87 10 20.74 10 0 10 C0 6.7 0 3.4 0 0 Z M2 2 C2 3.98 2 5.96 2 8 C20.81 8 39.62 8 59 8 C59 6.02 59 4.04 59 2 C40.19 2 21.38 2 2 2 Z " fill="#BB23FE" transform="translate(11,45)"/>
<path d="M0 0 C10.56 0 21.12 0 32 0 C32 2.31 32 4.62 32 7 C21.44 7 10.88 7 0 7 C0 4.69 0 2.38 0 0 Z " fill="#DE94FE" transform="translate(12,14)"/>
<path d="M0 0 C20.13 0 40.26 0 61 0 C61 0.99 61 1.98 61 3 C40.87 3 20.74 3 0 3 C0 2.01 0 1.02 0 0 Z " fill="#D16DFE" transform="translate(11,64)"/>
<path d="M0 0 C8.25 0 16.5 0 25 0 C25 1.98 25 3.96 25 6 C16.75 6 8.5 6 0 6 C0 4.02 0 2.04 0 0 Z " fill="#F9EEFE" transform="translate(45,72)"/>
<path d="M0 0 C8.25 0 16.5 0 25 0 C25 1.98 25 3.96 25 6 C16.75 6 8.5 6 0 6 C0 4.02 0 2.04 0 0 Z " fill="#FAEEFE" transform="translate(13,72)"/>
<path d="M0 0 C9.24 0 18.48 0 28 0 C28 3.3 28 6.6 28 10 C18.76 10 9.52 10 0 10 C0 6.7 0 3.4 0 0 Z M2 2 C2 3.98 2 5.96 2 8 C10.25 8 18.5 8 27 8 C27 6.02 27 4.04 27 2 C18.75 2 10.5 2 2 2 Z " fill="#B81FFF" transform="translate(11,70)"/>
<path d="M0 0 C9.24 0 18.48 0 28 0 C28 3.3 28 6.6 28 10 C18.76 10 9.52 10 0 10 C0 6.7 0 3.4 0 0 Z M2 2 C2 3.98 2 5.96 2 8 C10.25 8 18.5 8 27 8 C27 6.02 27 4.04 27 2 C18.75 2 10.5 2 2 2 Z " fill="#B821FE" transform="translate(43,70)"/>
<path d="M0 0 C10.89 0 21.78 0 33 0 C33 0.99 33 1.98 33 3 C22.11 3 11.22 3 0 3 C0 2.01 0 1.02 0 0 Z " fill="#D26FFF" transform="translate(11,27)"/>
<path d="M0 0 C3.63 0 7.26 0 11 0 C11 0.33 11 0.66 11 1 C8.03 1 5.06 1 2 1 C2.33 4.63 2.66 8.26 3 12 C3.66 11.34 4.32 10.68 5 10 C7.625 9.875 7.625 9.875 10 10 C10 11.98 10 13.96 10 16 C6.7 16 3.4 16 0 16 C0 10.72 0 5.44 0 0 Z " fill="#9F0FFF" transform="translate(50,14)"/>
<path d="M0 0 C1.32 0.33 2.64 0.66 4 1 C4 2.32 4 3.64 4 5 C5.65 5 7.3 5 9 5 C9 3.35 9 1.7 9 0 C10.32 0 11.64 0 13 0 C13 3.63 13 7.26 13 11 C12.01 10.34 11.02 9.68 10 9 C4.66531571 8.61535105 4.66531571 8.61535105 0 11 C0 7.37 0 3.74 0 0 Z " fill="#F7E9FF" transform="translate(52,16)"/>
<path d="M0 0 C1.32 0 2.64 0 4 0 C4 3.63 4 7.26 4 11 C1.4375 8.8125 1.4375 8.8125 -1 6 C-0.8125 3.25 -0.8125 3.25 0 1 C0 0.67 0 0.34 0 0 Z " fill="#FCF5FE" transform="translate(61,16)"/>
<path d="M0 0 C0 1.98 0 3.96 0 6 C-1.65 5.67 -3.3 5.34 -5 5 C-5 3.68 -5 2.36 -5 1 C-3 0 -3 0 0 0 Z " fill="#AB0BFF" transform="translate(60,16)"/>
<path d="M0 0 C0.66 0 1.32 0 2 0 C2 1.65 2 3.3 2 5 C0.35 5 -1.3 5 -3 5 C-3 4.34 -3 3.68 -3 3 C-2.34 3 -1.68 3 -1 3 C-0.67 2.01 -0.34 1.02 0 0 Z " fill="#9500FF" transform="translate(54,25)"/>
</svg>
